<?xml version="1.0" encoding="utf-8"?>
<!-- Generator: Adobe Illustrator 23.0.2, SVG Export Plug-In . SVG Version: 6.00 Build 0)  -->
<svg version="1.1" id="图层_1" xmlns="http://www.w3.org/2000/svg" xmlns:xlink="http://www.w3.org/1999/xlink" x="0px" y="0px"
	 viewBox="0 0 50 24" style="enable-background:new 0 0 50 24;" xml:space="preserve">
<style type="text/css">
	.st0{fill:#FFFFFF;}
</style>
<g>
	<g>
		<path class="st0" d="M23.9,1.3h-1.8c0,0-0.4,8.4-3.4,8.8v0.7C23.6,9.9,23.9,1.3,23.9,1.3z"/>
	</g>
	<g>
		<path class="st0" d="M29.5,1.3h-1.8c0,0,0.3,8.5,5.2,9.5v-0.7C29.9,9.7,29.5,1.3,29.5,1.3z"/>
	</g>
	<g>
		<g>
			<polygon class="st0" points="8.6,2.1 8.2,2.1 7.2,1 6.2,2.1 2.2,2.1 2.2,2.8 8.6,2.8 			"/>
		</g>
		<g>
			<path class="st0" d="M2.2,7.9v0.3c4.6-0.3,5.9-2.6,6.3-3.8c0-0.1,0.1-0.2,0.1-0.3c0-0.2,0.1-0.3,0.1-0.3H6.4H2.2v0.6h4.1
				C6,5.5,5,7.7,2.2,7.9z"/>
		</g>
		<g>
			<polygon class="st0" points="10.2,2.8 16.3,2.8 16.3,2.1 15.6,2.1 14.6,1 13.7,2.1 10.2,2.1 10.2,1 9.5,1 9.5,8.3 9.5,8.3 
				9.5,8.3 16.3,8.3 16.3,6.5 10.2,6.5 			"/>
		</g>
		<g>
			<rect x="8.2" y="9.3" class="st0" width="2.1" height="6.9"/>
		</g>
		<g>
			<path class="st0" d="M12.7,10.4h3.5V10V9.7h-3.6h-1.9c0,0,0,0.1,0,0.3c0,0.1,0,0.2,0.1,0.3c0.3,1.6,1.3,5.4,5.4,5.9v-0.5
				C13.7,15.6,12.9,11.9,12.7,10.4z"/>
		</g>
		<g>
			<path class="st0" d="M2.2,9.7V10v0.3h3.5c-0.2,1.6-1,5.2-3.5,5.4v0.5c4.1-0.5,5.2-4.3,5.4-5.9c0-0.1,0-0.2,0.1-0.3
				c0-0.2,0-0.3,0-0.3H5.8H2.2z"/>
		</g>
	</g>
	<g>
		<g>
			<polygon class="st0" points="39.7,1.9 39.3,1.9 37.9,0.6 36.6,1.9 34.9,1.9 34.9,2.5 39.7,2.5 			"/>
		</g>
		<g>
			<rect x="34.9" y="4.3" class="st0" width="4.8" height="0.6"/>
		</g>
		<g>
			<rect x="34.9" y="6.2" class="st0" width="4.8" height="0.6"/>
		</g>
		<g>
			<path class="st0" d="M39.7,8.9V8.6h-4.8v0.6h0v6.5h0v0.6h4.8v-0.5h0L39.7,8.9L39.7,8.9L39.7,8.9z M35.6,15.8V9.2h2.5v6.5H35.6z"
				/>
		</g>
		<g>
			<path class="st0" d="M47.3,2c0.3-0.4,0.6-0.9,0.8-1.4h-1.5c-0.2,0.5-0.4,1-0.6,1.4h-2.3c-0.2-0.5-0.4-1-0.7-1.4H42
				C42.2,1,42.4,1.5,42.6,2h-1.9v0.3v0.3h0v3.7h0V7h1.7c0,1.4,0,6.9-1.7,8.4v0.8c3.2-1.6,3.3-7.5,3.3-9.2h1.9v7.8v0.1v1.4
				c0.5-0.1,1-0.2,1.5-0.3c0.5-0.1,1.1-0.3,1.6-0.5v-1.1c-0.5,0.1-1,0.2-1.6,0.3V7H49V6.6h0V2.7V2.3V2.2V2H47.3z M41.4,6.4V2.7h1.4
				h1.1h1.7h0h1h0.3h0.7v3.7H41.4z"/>
		</g>
	</g>
	<g>
		<path class="st0" d="M31.6,15.9L28.9,13l-0.4,0.5l1.3,1.4h-7.3c2.7-3.1,3.1-8,3.1-8.3l0-0.3l-0.6,0l0,0.3c0,0.1-0.6,7.3-5,9.5v0.2
			h11.7V15.9z"/>
	</g>
	<g>
		<path class="st0" d="M1.9,22.6c-0.1,0-0.3-0.1-0.4-0.1c-0.1-0.1-0.2-0.1-0.3-0.2C1.1,22.1,1.1,22,1,21.9c0-0.1-0.1-0.2-0.1-0.4
			c0-0.1,0-0.3,0.1-0.4c0.1-0.1,0.1-0.2,0.2-0.3c0.1-0.1,0.2-0.2,0.3-0.2c0.1-0.1,0.3-0.1,0.4-0.1c0.2,0,0.3,0,0.4,0.1
			c0.1,0.1,0.2,0.1,0.3,0.2C2.9,20.9,3,21,3,21.1c0.1,0.1,0.1,0.3,0.1,0.4c0,0.1,0,0.3-0.1,0.4c0,0.1-0.1,0.2-0.2,0.3
			c-0.1,0.1-0.2,0.2-0.3,0.2c-0.1,0.1-0.2,0.1-0.4,0.1c0.1,0,0.1,0,0.2,0.1c0,0,0.1,0,0.1,0.1c0.1,0,0.1,0,0.2,0c0.1,0,0.1,0,0.1,0
			c0,0,0.1-0.1,0.1-0.1l0.2,0.1c0,0.1,0,0.1-0.1,0.1c0,0-0.1,0.1-0.1,0.1c0,0-0.1,0-0.1,0.1c0,0-0.1,0-0.1,0c-0.1,0-0.1,0-0.2,0
			c-0.1,0-0.1-0.1-0.2-0.1c-0.1,0-0.1-0.1-0.2-0.1c0,0-0.1,0-0.1,0V22.6z M2,22.3c0.1,0,0.2,0,0.3-0.1c0.1,0,0.2-0.1,0.2-0.2
			c0.1-0.1,0.1-0.2,0.2-0.3c0-0.1,0.1-0.2,0.1-0.3c0-0.1,0-0.2-0.1-0.3c0-0.1-0.1-0.2-0.2-0.3c-0.1-0.1-0.2-0.1-0.2-0.2
			c-0.1,0-0.2-0.1-0.3-0.1c-0.1,0-0.2,0-0.3,0.1c-0.1,0-0.2,0.1-0.2,0.2c-0.1,0.1-0.1,0.2-0.2,0.3c0,0.1-0.1,0.2-0.1,0.3
			c0,0.1,0,0.2,0.1,0.3c0,0.1,0.1,0.2,0.2,0.2c0.1,0.1,0.1,0.1,0.2,0.2C1.8,22.3,1.9,22.3,2,22.3z"/>
		<path class="st0" d="M5.5,20.5h0.7v0.2H6v1.6h0.2v0.2H5.5v-0.2h0.2v-1.6H5.5V20.5z"/>
		<path class="st0" d="M10.4,22.6v-0.4c0,0.1-0.1,0.1-0.1,0.2c-0.1,0.1-0.1,0.1-0.2,0.1c-0.1,0-0.1,0.1-0.2,0.1c-0.1,0-0.2,0-0.2,0
			c-0.1,0-0.3,0-0.4-0.1c-0.1,0-0.2-0.1-0.3-0.2c-0.1-0.1-0.2-0.2-0.2-0.3c-0.1-0.1-0.1-0.3-0.1-0.4c0-0.1,0-0.3,0.1-0.4
			c0.1-0.1,0.1-0.2,0.2-0.3c0.1-0.1,0.2-0.2,0.3-0.2c0.1-0.1,0.3-0.1,0.4-0.1c0.1,0,0.3,0,0.4,0.1c0.1,0,0.2,0.1,0.3,0.1
			c0.1,0.1,0.1,0.1,0.2,0.2h0.1v0.2h-0.3c-0.1-0.1-0.2-0.2-0.3-0.2c-0.1-0.1-0.2-0.1-0.4-0.1c-0.1,0-0.2,0-0.3,0.1
			c-0.1,0-0.2,0.1-0.2,0.2C9,21,8.9,21.1,8.9,21.2c0,0.1-0.1,0.2-0.1,0.3c0,0.1,0,0.2,0.1,0.3c0,0.1,0.1,0.2,0.2,0.2
			c0.1,0.1,0.1,0.1,0.2,0.2c0.1,0,0.2,0.1,0.3,0.1c0.2,0,0.3,0,0.5-0.1c0.1-0.1,0.2-0.2,0.3-0.4H9.7v-0.2h0.9v1H10.4z"/>
		<path class="st0" d="M14.1,22.6c-0.2,0-0.3,0-0.4-0.1c-0.1-0.1-0.2-0.1-0.3-0.2c-0.1-0.1-0.2-0.2-0.2-0.3
			c-0.1-0.1-0.1-0.3-0.1-0.4c0-0.1,0-0.3,0.1-0.4c0.1-0.1,0.1-0.2,0.2-0.3c0.1-0.1,0.2-0.2,0.3-0.2c0.1-0.1,0.3-0.1,0.4-0.1
			c0.2,0,0.3,0,0.4,0.1c0.1,0.1,0.2,0.1,0.3,0.2c0.1,0.1,0.2,0.2,0.2,0.3c0.1,0.1,0.1,0.3,0.1,0.4c0,0.1,0,0.3-0.1,0.4
			c-0.1,0.1-0.1,0.2-0.2,0.3c-0.1,0.1-0.2,0.2-0.3,0.2C14.5,22.6,14.3,22.6,14.1,22.6z M14.1,22.3c0.1,0,0.2,0,0.3-0.1
			c0.1,0,0.2-0.1,0.2-0.2c0.1-0.1,0.1-0.2,0.2-0.3c0-0.1,0.1-0.2,0.1-0.3c0-0.1,0-0.2-0.1-0.3c0-0.1-0.1-0.2-0.2-0.3
			c-0.1-0.1-0.2-0.1-0.2-0.2c-0.1,0-0.2-0.1-0.3-0.1c-0.1,0-0.2,0-0.3,0.1c-0.1,0-0.2,0.1-0.2,0.2c-0.1,0.1-0.1,0.2-0.2,0.3
			c0,0.1-0.1,0.2-0.1,0.3c0,0.1,0,0.2,0.1,0.3c0,0.1,0.1,0.2,0.2,0.2c0.1,0.1,0.1,0.1,0.2,0.2C13.9,22.3,14,22.3,14.1,22.3z"/>
		<path class="st0" d="M19,20.5h0.7v0.2h-0.2v1.8h-0.4l-1-1.7v1.5h0.2v0.2h-0.7v-0.2h0.2v-1.6h-0.2v-0.2h0.6l1,1.7l0-0.1v-1.4H19
			V20.5z"/>
		<path class="st0" d="M23.8,22.6v-0.4c0,0.1-0.1,0.1-0.1,0.2c-0.1,0.1-0.1,0.1-0.2,0.1c-0.1,0-0.1,0.1-0.2,0.1c-0.1,0-0.2,0-0.2,0
			c-0.1,0-0.3,0-0.4-0.1c-0.1,0-0.2-0.1-0.3-0.2c-0.1-0.1-0.2-0.2-0.2-0.3c-0.1-0.1-0.1-0.3-0.1-0.4c0-0.1,0-0.3,0.1-0.4
			c0.1-0.1,0.1-0.2,0.2-0.3c0.1-0.1,0.2-0.2,0.3-0.2c0.1-0.1,0.3-0.1,0.4-0.1c0.1,0,0.3,0,0.4,0.1c0.1,0,0.2,0.1,0.3,0.1
			c0.1,0.1,0.1,0.1,0.2,0.2h0.1v0.2h-0.3c-0.1-0.1-0.2-0.2-0.3-0.2c-0.1-0.1-0.2-0.1-0.4-0.1c-0.1,0-0.2,0-0.3,0.1
			c-0.1,0-0.2,0.1-0.2,0.2c-0.1,0.1-0.1,0.2-0.2,0.3c0,0.1-0.1,0.2-0.1,0.3c0,0.1,0,0.2,0.1,0.3c0,0.1,0.1,0.2,0.2,0.2
			c0.1,0.1,0.1,0.1,0.2,0.2c0.1,0,0.2,0.1,0.3,0.1c0.2,0,0.3,0,0.5-0.1c0.1-0.1,0.2-0.2,0.3-0.4h-0.6v-0.2H24v1H23.8z"/>
		<path class="st0" d="M27,22.3h0.2v-1.6h-0.5v0.3h-0.3v-0.5h2v0.5h-0.3v-0.3h-0.6v1.6h0.2v0.2H27V22.3z"/>
		<path class="st0" d="M32.3,20.5H33v0.2h-0.2v1.6H33v0.2h-0.7v-0.2h0.2v-0.7h-1.3v0.7h0.2v0.2h-0.7v-0.2H31v-1.6h-0.2v-0.2h0.7v0.2
			h-0.2v0.6h1.3v-0.6h-0.2V20.5z"/>
		<path class="st0" d="M35.5,20.5h1.6v0.6h-0.3v-0.3H36v0.7h0.7v0.2H36v0.7h0.8V22h0.3v0.6h-1.6v-0.2h0.2v-1.6h-0.2V20.5z"/>
		<path class="st0" d="M40.4,22.6c-0.2,0-0.3,0-0.4-0.1c-0.1-0.1-0.2-0.1-0.3-0.2c-0.1-0.1-0.2-0.2-0.2-0.3
			c-0.1-0.1-0.1-0.3-0.1-0.4c0-0.1,0-0.3,0.1-0.4c0.1-0.1,0.1-0.2,0.2-0.3c0.1-0.1,0.2-0.2,0.3-0.2c0.1-0.1,0.3-0.1,0.4-0.1
			c0.2,0,0.3,0,0.4,0.1c0.1,0.1,0.2,0.1,0.3,0.2c0.1,0.1,0.2,0.2,0.2,0.3c0.1,0.1,0.1,0.3,0.1,0.4c0,0.1,0,0.3-0.1,0.4
			c-0.1,0.1-0.1,0.2-0.2,0.3c-0.1,0.1-0.2,0.2-0.3,0.2C40.7,22.6,40.6,22.6,40.4,22.6z M40.4,22.3c0.1,0,0.2,0,0.3-0.1
			c0.1,0,0.2-0.1,0.2-0.2c0.1-0.1,0.1-0.2,0.2-0.3c0-0.1,0.1-0.2,0.1-0.3c0-0.1,0-0.2-0.1-0.3c0-0.1-0.1-0.2-0.2-0.3
			c-0.1-0.1-0.2-0.1-0.2-0.2c-0.1,0-0.2-0.1-0.3-0.1c-0.1,0-0.2,0-0.3,0.1c-0.1,0-0.2,0.1-0.2,0.2c-0.1,0.1-0.1,0.2-0.2,0.3
			c0,0.1-0.1,0.2-0.1,0.3c0,0.1,0,0.2,0.1,0.3c0,0.1,0.1,0.2,0.2,0.2c0.1,0.1,0.1,0.1,0.2,0.2C40.2,22.3,40.3,22.3,40.4,22.3z"/>
		<path class="st0" d="M43.9,20.5h0.9c0.1,0,0.2,0,0.3,0c0.1,0,0.2,0.1,0.2,0.1c0.1,0,0.1,0.1,0.1,0.2c0,0.1,0.1,0.1,0.1,0.2
			c0,0.1,0,0.1,0,0.2c0,0,0,0.1-0.1,0.1c0,0-0.1,0.1-0.1,0.1c0,0-0.1,0.1-0.2,0.1c0,0,0,0,0.1,0c0,0,0,0,0.1,0.1c0,0,0,0.1,0.1,0.1
			c0,0,0,0.1,0,0.1l0.1,0.4h0.2l0,0.3h-0.4l-0.2-0.6c0-0.1-0.1-0.2-0.1-0.2c-0.1-0.1-0.1-0.1-0.3-0.1h-0.3v0.7h0.2v0.2h-0.7v-0.2
			h0.2v-1.6h-0.2V20.5z M44.4,20.7v0.6h0.4c0.1,0,0.1,0,0.2,0c0,0,0.1,0,0.1-0.1c0,0,0.1-0.1,0.1-0.1c0,0,0-0.1,0-0.1
			c0-0.1,0-0.2-0.1-0.2c-0.1-0.1-0.2-0.1-0.3-0.1H44.4z"/>
		<path class="st0" d="M48,20.5h0.7v0.2h-0.2l0.4,0.7l0.4-0.7h-0.2v-0.2h0.7v0.2h-0.2L49,21.6v0.7h0.2v0.2h-0.7v-0.2h0.2v-0.7
			l-0.6-0.9H48V20.5z"/>
	</g>
</g>
</svg>
