<?xml version="1.0" encoding="utf-8"?>
<!-- Generator: Adobe Illustrator 23.0.2, SVG Export Plug-In . SVG Version: 6.00 Build 0)  -->
<svg version="1.1" id="图层_1" xmlns="http://www.w3.org/2000/svg" xmlns:xlink="http://www.w3.org/1999/xlink" x="0px" y="0px"
	 viewBox="0 0 200 200" style="enable-background:new 0 0 200 200;" xml:space="preserve">
<style type="text/css">
	.st0{fill:#FFFFFF;}
</style>
<g>
	<g>
		<polygon class="st0" points="55.67,11.3 62.78,11.3 62.78,50.98 125.71,102.42 125.71,132.52 118.88,132.52 118.05,105.71 
			63.6,60.29 62.78,60.63 62.68,132.52 55.67,132.87 55.67,11.89 		"/>
		<polygon class="st0" points="76.94,58.37 82.48,62.48 134.61,20.61 134.61,132.87 142.61,132.87 142.61,11.31 134.41,11.31 		"/>
	</g>
	<path class="st0" d="M1.71,148.95c0,0-0.41-2.19,2.25-2.12c0,0,2.94-0.13,2.81,2.12l0.01,17.03c0,0,0.2,5.88,6.43,5.88
		c0,0,5.13-0.07,5.81-6.29v-17.99c0,0-0.07-0.75,2.6-0.75c0,0,1.78-0.07,1.99,1.16v18.13c0,0-0.37,8.9-10.96,9.1
		c0,0-9.34,0.82-10.96-9.44L1.71,148.95z"/>
	<path class="st0" d="M52.16,150.12c0,0-0.89-3.49,3.35-3.29c0,0,3.01-0.48,3.97,2.33l9.51,17.38h0.55l-0.28-18.68
		c0,0,0-1.24,2.87-1.03c0,0,1.98,0,1.98,1.16l-0.27,25.45c0,0,0.07,1.3-2.8,1.44c0,0-2.67,0.61-3.35-1.64l-10.81-18.82l-0.27,19.91
		c0,0-0.07,0.7-2.19,0.62c0,0-2.55,0.4-2.34-1.37L52.16,150.12z"/>
	<path class="st0" d="M103.4,148.4c0,0-0.28-1.71,2.66-1.6c0,0,2.05-0.11,2.19,1.6v26.06c0,0-0.34,0.64-3.35,0.53
		c0,0-1.38-0.05-1.51-0.66L103.4,148.4z"/>
	<path class="st0" d="M134.18,147.99c0,0-0.28-0.82,2.12-0.82h18.74c0,0,0.55,0.21,0.55,1.3v1.92c0,0-0.89,0.34-1.57,0.27
		l-6.91,0.01v23.73c0,0-0.41,0.27-1.92,0.27c0,0-2.46,0.41-2.6-0.96l-0.21-22.99l-6.91-0.07c0,0-1.32,0.34-1.31-1.16L134.18,147.99z
		"/>
	<path class="st0" d="M184.6,147.17c0,0-3.15-0.82-3.15,1.78v24.83c0,0-0.21,1.28,3.15,0.95h12.66c0,0,0.68,0.35,0.41-3.14
		c0,0,0.41-0.41-1.57-0.27l-9.92-0.07v-9.51l9.31,0.14c0,0,0.61-0.21,0.41-2.12c0,0,0.2-1.5-1.03-1.64h-8.76v-7.52h11.08
		c0,0,0.75-1.27,0-3.54L184.6,147.17z"/>
</g>
</svg>
